<?xml version="1.0" standalone="no"?>
<!DOCTYPE svg PUBLIC "-//W3C//DTD SVG 20010904//EN"
 "http://www.w3.org/TR/2001/REC-SVG-20010904/DTD/svg10.dtd">
<svg version="1.0" xmlns="http://www.w3.org/2000/svg"
 width="1536.000000pt" height="1536.000000pt" viewBox="0 0 1536.000000 1536.000000"
 preserveAspectRatio="xMidYMid meet">
<metadata>
Created by potrace 1.14, written by Peter Selinger 2001-2017
</metadata>
<g transform="translate(0.000000,1536.000000) scale(0.100000,-0.100000)"
fill="#000000" stroke="none">
<path d="M2045 10580 c3 -4 -45 -11 -105 -15 -61 -3 -110 -11 -110 -16 0 -5
-13 -9 -30 -9 -16 0 -30 -4 -30 -10 0 -5 -13 -10 -30 -10 -16 0 -30 -4 -30
-10 0 -5 -17 -10 -37 -10 -28 0 -34 -3 -23 -10 12 -8 9 -10 -11 -10 -15 0 -32
-7 -39 -15 -7 -8 -16 -12 -21 -9 -5 3 -9 1 -9 -5 0 -5 -17 -12 -38 -16 -21 -3
-45 -15 -52 -26 -8 -10 -20 -19 -27 -19 -7 0 -13 -4 -13 -8 0 -5 -12 -15 -27
-23 -16 -8 -39 -24 -53 -36 -14 -13 -29 -23 -34 -23 -4 0 -28 -20 -52 -45 -23
-25 -48 -45 -54 -45 -6 0 -8 -4 -5 -10 3 -5 0 -10 -8 -10 -8 0 -22 -11 -31
-25 -9 -14 -21 -23 -26 -20 -5 3 -11 -4 -15 -15 -3 -11 -17 -23 -31 -26 -13
-4 -29 -15 -35 -25 -5 -11 -17 -19 -27 -19 -15 0 -15 -2 -2 -10 13 -8 12 -10
-3 -10 -10 0 -15 -4 -12 -10 3 -5 -1 -10 -10 -10 -9 0 -13 -4 -10 -10 3 -5 0
-10 -7 -10 -7 0 -19 -9 -26 -20 -7 -12 -17 -18 -22 -15 -9 6 -14 -8 -11 -27 0
-5 -5 -7 -12 -5 -6 1 -11 -4 -10 -10 2 -7 -2 -12 -8 -10 -6 1 -13 -7 -15 -18
-1 -11 -7 -21 -13 -23 -5 -2 -19 -12 -32 -23 -15 -13 -17 -19 -8 -20 8 0 4 -4
-8 -9 -13 -5 -23 -16 -23 -25 0 -8 -4 -15 -9 -15 -5 0 -12 -11 -15 -25 -4 -14
-11 -25 -16 -25 -6 0 -10 -7 -10 -16 0 -8 -7 -22 -15 -31 -8 -8 -12 -20 -8
-26 3 -7 3 -9 -2 -5 -11 11 -35 -18 -35 -42 0 -12 -4 -19 -9 -16 -5 4 -12 -12
-16 -34 -4 -22 -11 -42 -16 -46 -5 -3 -9 -14 -9 -25 0 -10 -4 -19 -10 -19 -5
0 -10 -11 -10 -25 0 -24 -3 -33 -28 -81 -8 -16 -7 -25 1 -34 9 -10 9 -11 0 -6
-10 5 -13 -4 -13 -33 0 -26 -5 -41 -12 -41 -10 0 -9 -3 1 -9 11 -7 11 -9 0
-13 -11 -4 -13 -258 -13 -1494 1 -819 2 -1516 4 -1549 2 -33 8 -66 14 -74 8
-11 8 -13 -1 -7 -7 4 -13 2 -13 -3 0 -6 4 -11 10 -11 5 0 9 -3 9 -7 -4 -25 2
-63 9 -59 5 3 9 -1 9 -9 0 -8 -5 -11 -11 -8 -6 3 -5 0 2 -8 6 -7 12 -21 12
-32 0 -12 4 -16 12 -11 8 5 7 0 -2 -11 -9 -11 -10 -16 -3 -11 9 5 13 -2 13
-24 0 -20 4 -29 11 -25 6 4 10 1 8 -6 -3 -27 1 -40 11 -34 6 4 10 3 8 -2 -4
-17 14 -93 23 -93 5 0 9 -7 9 -15 0 -8 5 -15 11 -15 5 0 7 -4 4 -10 -3 -5 2
-10 12 -11 10 0 13 -3 6 -6 -10 -3 -9 -8 2 -20 8 -8 12 -19 9 -25 -4 -6 -2 -8
4 -4 6 3 18 -11 28 -34 10 -22 21 -40 26 -40 4 0 8 -7 8 -15 0 -9 11 -27 25
-41 14 -14 25 -22 25 -19 0 4 7 0 15 -9 8 -8 15 -20 15 -26 0 -7 31 -43 70
-81 38 -38 70 -73 70 -78 0 -5 10 -11 23 -15 21 -5 107 -76 93 -76 -4 0 -1 -6
6 -14 7 -8 16 -12 19 -10 4 2 12 -3 19 -11 7 -8 16 -12 21 -9 5 3 9 -2 9 -11
0 -9 4 -14 10 -10 5 3 14 -9 19 -27 5 -18 10 -27 10 -20 1 10 4 10 15 0 8 -7
12 -16 10 -19 -2 -4 7 -10 21 -13 14 -4 25 -11 25 -17 0 -6 5 -7 10 -4 6 3 10
-1 10 -9 0 -9 7 -16 16 -16 8 0 12 -4 9 -10 -3 -5 1 -10 10 -10 9 0 13 -4 10
-10 -5 -9 16 -15 38 -11 5 1 6 -3 2 -9 -3 -5 1 -10 9 -10 9 0 16 -4 16 -10 0
-5 6 -10 14 -10 8 0 22 -7 30 -16 9 -8 16 -12 16 -9 0 4 11 0 25 -9 13 -9 31
-16 40 -16 9 0 13 -4 10 -10 -5 -9 15 -15 38 -11 4 0 7 -4 7 -9 0 -6 9 -10 21
-10 13 0 18 -4 13 -12 -5 -8 0 -7 11 2 11 9 16 10 11 3 -5 -9 0 -13 13 -14 12
-1 26 -3 31 -4 6 -1 19 -3 31 -4 13 -1 18 -5 13 -14 -5 -7 0 -6 11 3 11 9 16
10 11 3 -5 -9 1 -13 18 -14 35 -2 39 -3 55 -13 10 -7 12 -5 6 5 -6 11 -5 12 6
2 7 -7 26 -13 42 -13 20 0 26 -4 21 -13 -6 -9 -4 -9 7 0 15 15 33 17 25 4 -3
-5 11 -9 32 -9 42 -1 140 -9 189 -15 18 -3 30 -1 28 3 -6 10 21 7 31 -3 10 -9
26 -9 21 1 -3 4 6 8 20 9 19 1 22 -1 12 -8 -12 -7 -11 -9 2 -9 9 0 19 3 23 7
10 11 37 12 30 2 -7 -12 3 -11 28 2 15 8 19 8 14 0 -10 -15 7 -14 23 2 11 10
13 10 7 0 -8 -14 6 -18 18 -5 11 11 56 9 49 -2 -4 -5 1 -7 10 -3 10 4 25 10
34 13 16 5 16 4 3 -6 -13 -10 -12 -11 5 -5 36 12 56 14 50 4 -8 -12 2 -12 27
2 15 8 19 8 14 0 -4 -6 0 -11 9 -11 10 0 14 5 9 13 -6 9 -4 9 7 0 15 -15 33
-17 25 -4 -7 10 49 9 60 -2 10 -9 27 -9 20 1 -2 4 13 7 34 7 21 0 36 -3 34 -7
-8 -13 11 -9 25 5 11 10 13 10 7 0 -8 -14 6 -18 18 -6 10 11 37 12 30 2 -7
-12 3 -11 28 2 15 8 19 8 14 0 -10 -15 7 -14 23 2 11 10 13 10 7 0 -8 -14 6
-18 18 -5 11 11 56 9 49 -2 -4 -5 1 -7 10 -3 10 4 25 10 35 13 14 5 15 4 2 -5
-13 -9 -13 -11 1 -11 9 0 19 3 23 7 10 11 37 12 30 2 -7 -12 3 -11 28 2 15 8
19 8 14 0 -10 -15 7 -14 23 2 11 10 13 10 7 0 -8 -14 6 -18 18 -5 11 11 56 9
49 -2 -4 -6 1 -6 13 -2 10 4 26 10 34 13 13 4 13 4 0 -6 -13 -9 -13 -11 1 -11
9 0 19 3 23 7 10 11 37 12 30 2 -7 -12 3 -11 28 2 15 8 19 8 14 0 -10 -15 7
-14 23 2 11 9 13 9 7 0 -8 -14 6 -18 18 -6 10 11 76 11 70 1 -7 -11 4 -10 28
3 15 8 19 8 14 0 -4 -6 0 -11 9 -11 10 0 14 5 9 13 -6 10 -4 10 7 0 15 -15 33
-17 25 -4 -7 10 49 9 60 -2 10 -9 27 -9 20 1 -2 4 13 7 34 7 21 0 36 -4 33 -9
-4 -5 1 -6 10 -3 10 4 25 10 35 13 14 5 15 4 2 -5 -12 -9 -11 -11 8 -11 13 0
21 3 19 8 -3 4 6 8 20 9 19 1 22 -1 12 -8 -12 -7 -11 -9 2 -9 9 0 19 3 23 7
10 11 37 12 30 2 -7 -12 3 -11 28 2 15 8 19 8 14 0 -10 -15 7 -14 23 2 11 10
13 10 7 0 -8 -14 6 -18 18 -6 11 12 56 10 49 -1 -4 -6 1 -6 13 -2 10 4 30 10
44 12 19 3 22 2 10 -6 -12 -8 -11 -10 8 -10 13 0 21 3 19 8 -3 4 6 8 20 9 19
1 22 -1 12 -8 -12 -7 -11 -9 2 -9 9 0 19 3 23 7 10 11 37 12 30 2 -7 -12 3
-11 28 2 15 8 19 8 14 0 -10 -15 7 -14 23 1 11 10 13 10 7 1 -8 -14 6 -18 18
-6 11 12 56 10 49 -1 -4 -5 1 -7 10 -3 10 4 25 10 35 13 15 5 15 4 2 -6 -13
-10 -12 -11 5 -5 36 12 56 14 50 4 -8 -12 2 -12 27 2 15 8 19 8 14 0 -4 -6 0
-11 9 -11 10 0 14 5 9 13 -6 10 -4 10 7 0 15 -15 33 -17 25 -4 -7 10 49 9 60
-2 10 -9 27 -9 20 1 -2 4 13 7 34 7 21 0 36 -3 34 -7 -8 -13 11 -9 25 4 11 10
13 10 7 1 -8 -14 6 -18 18 -6 10 11 37 12 30 2 -7 -12 3 -11 28 2 15 8 19 8
14 0 -10 -15 7 -14 23 1 11 10 13 10 7 1 -8 -14 6 -18 18 -6 11 12 56 10 49
-1 -4 -5 1 -7 10 -3 10 4 25 10 35 13 14 5 15 4 2 -5 -13 -9 -13 -11 1 -11 9
0 19 3 23 7 10 11 37 12 30 2 -7 -12 3 -11 28 2 15 8 19 8 14 0 -10 -15 7 -14
23 1 11 10 13 10 7 1 -8 -14 6 -18 18 -5 11 11 56 9 49 -2 -4 -6 1 -6 13 -2
10 4 26 10 34 13 13 4 13 4 0 -6 -13 -9 -13 -11 1 -11 9 0 19 3 23 7 10 11 37
12 30 2 -7 -12 3 -11 28 2 15 8 19 8 14 0 -10 -15 7 -14 23 2 11 10 13 10 7 0
-8 -14 6 -18 18 -6 10 11 37 12 30 2 -3 -5 2 -9 11 -9 10 0 14 5 9 13 -6 9 -4
9 7 -1 14 -13 33 -17 25 -4 -2 4 5 9 17 9 17 2 19 0 7 -7 -8 -5 -10 -10 -4
-10 6 0 14 3 18 7 10 11 37 12 30 2 -6 -11 10 -12 20 -1 10 10 66 10 60 0 -3
-4 -1 -8 5 -8 5 0 13 5 16 10 4 7 13 6 27 -1 12 -7 18 -7 14 -1 -7 11 19 10
30 -1 4 -4 13 -2 20 4 8 7 14 7 19 -1 3 -5 11 -10 16 -10 6 0 8 4 5 8 -2 4 4
8 14 8 10 0 16 -4 14 -8 -3 -4 2 -8 11 -8 9 0 14 4 11 8 -2 4 6 8 19 8 13 0
21 -4 19 -8 -3 -4 2 -8 11 -8 9 0 14 4 11 9 -7 10 20 9 30 -2 10 -10 36 -9 30
1 -3 5 10 8 29 8 18 0 31 -4 29 -8 -3 -5 2 -8 11 -8 9 0 14 4 11 8 -6 11 40 9
50 -1 10 -10 26 -9 20 1 -2 4 4 8 14 8 10 0 16 -4 14 -8 -3 -4 2 -8 11 -8 9 0
14 4 11 8 -2 4 6 8 19 8 13 0 21 -4 19 -8 -3 -4 2 -8 11 -8 9 0 14 4 11 9 -7
10 20 9 30 -2 10 -10 36 -9 30 1 -3 5 10 8 29 8 18 0 31 -4 29 -8 -3 -5 2 -8
11 -8 9 0 14 4 11 8 -2 4 5 9 17 9 17 2 19 0 7 -7 -12 -8 -11 -10 5 -7 11 1
26 6 33 10 7 5 12 3 12 -5 0 -9 3 -10 8 -2 4 6 37 11 74 12 37 0 76 5 87 11
25 14 41 14 21 1 -9 -6 -10 -10 -3 -10 6 0 15 4 18 10 3 6 21 10 39 10 17 0
38 6 45 12 11 11 12 10 6 -2 -6 -12 -5 -13 6 -3 7 7 26 13 42 13 18 0 26 4 21
11 -4 7 1 7 16 -1 12 -7 20 -8 16 -2 -6 10 39 22 86 22 17 0 27 4 23 10 -4 6
7 10 24 10 17 0 31 5 31 10 0 6 9 10 20 10 11 0 20 5 20 10 0 6 6 10 14 10 17
0 67 25 61 31 -2 3 4 6 13 7 40 4 53 9 77 30 14 12 37 22 53 22 21 0 24 2 12
10 -13 8 -12 10 3 10 22 0 49 25 39 35 -4 5 -2 5 5 2 6 -4 19 0 27 9 14 14 30
20 58 23 4 1 9 9 12 19 4 11 18 25 33 33 15 8 37 24 49 37 13 12 30 22 39 22
8 0 14 6 13 13 -2 6 3 11 10 9 8 -1 11 1 8 6 -7 11 30 42 40 34 4 -4 4 -1 0 6
-5 8 4 18 23 30 17 9 31 23 31 30 0 7 5 10 10 7 6 -3 10 1 10 10 0 15 18 34
75 83 8 7 13 17 10 23 -4 5 -1 9 5 9 6 0 9 4 6 8 -3 5 4 15 15 22 10 8 19 20
19 28 0 7 4 10 10 7 6 -3 10 3 10 15 0 12 5 18 10 15 6 -3 10 3 10 14 0 12 4
21 9 21 5 0 12 16 15 35 4 20 11 33 17 30 8 -6 14 16 10 38 -1 5 3 6 9 2 5 -3
10 1 10 9 0 9 5 16 10 16 6 0 10 11 10 25 0 14 5 25 10 25 6 0 10 12 10 26 0
14 4 23 8 20 4 -2 9 10 10 27 2 17 7 34 12 37 4 3 12 34 16 68 4 41 10 59 15
50 5 -7 9 -8 9 -2 0 5 -6 16 -12 23 -10 11 -10 13 0 7 9 -5 12 4 12 36 0 24 5
49 10 54 6 6 10 63 11 127 0 87 4 116 12 111 8 -5 8 -2 0 7 -17 17 -17 63 -1
53 8 -5 8 -3 2 7 -12 18 -12 119 -1 112 5 -3 4 4 -2 15 -15 28 -14 55 2 46 9
-6 9 -4 -1 7 -16 18 -16 63 1 53 10 -6 10 -4 0 7 -17 18 -17 63 0 53 9 -6 9
-5 0 7 -10 12 -10 18 0 29 6 7 7 10 1 7 -6 -3 -10 8 -11 30 -1 25 2 32 8 22 6
-9 9 -10 9 -2 0 6 -5 15 -11 19 -8 4 -7 9 2 15 8 5 9 9 4 9 -6 0 -12 12 -13
28 -1 20 1 23 8 12 7 -12 9 -10 7 7 0 12 -4 20 -7 18 -3 -2 -7 12 -7 32 -1 25
2 32 8 22 6 -9 9 -10 9 -2 0 6 -5 15 -11 19 -8 4 -7 9 2 15 8 5 9 9 4 9 -6 0
-12 12 -13 28 -1 22 0 24 9 12 9 -13 10 -12 5 3 -3 9 -9 24 -13 34 -4 11 -3
14 6 8 10 -6 11 -3 2 13 -15 28 -14 55 2 46 8 -6 8 -3 -2 9 -14 18 -12 132 4
157 5 8 4 11 -2 7 -5 -4 -10 6 -10 23 0 16 5 27 10 23 5 -3 4 4 -2 15 -14 26
-14 35 0 26 8 -5 8 -1 0 14 -15 28 -14 55 2 46 10 -6 10 -4 0 7 -17 17 -17 63
-1 53 8 -5 8 -3 2 7 -12 18 -12 119 -1 112 5 -3 4 4 -2 15 -14 26 -14 35 0 26
8 -5 8 -1 0 14 -14 26 -14 35 0 26 8 -5 8 -1 0 14 -15 28 -14 55 2 46 8 -6 8
-3 -2 9 -14 18 -12 132 4 157 5 8 4 11 -2 7 -5 -4 -10 6 -10 23 0 16 5 27 10
23 5 -3 4 4 -2 15 -14 26 -14 35 0 26 8 -5 8 -1 0 14 -15 28 -14 55 2 46 10
-6 10 -4 0 7 -17 17 -17 63 -1 53 8 -5 8 -3 2 7 -12 18 -12 119 -1 112 5 -3 4
3 -1 14 -12 22 -13 120 -1 101 6 -9 9 -9 9 -1 0 6 -5 15 -11 19 -8 4 -7 9 2
15 8 5 9 9 3 9 -7 0 -11 25 -11 66 0 41 3 61 8 53 6 -10 9 -10 9 -2 0 6 -5 15
-11 19 -8 4 -7 9 2 15 8 5 9 9 4 9 -6 0 -12 16 -13 36 -2 27 1 34 10 28 10 -5
11 -4 1 7 -17 17 -17 63 -1 53 8 -5 8 -3 2 7 -12 18 -12 119 -1 112 5 -3 4 4
-2 15 -15 28 -14 55 2 46 9 -6 9 -4 0 7 -7 7 -13 24 -13 37 0 16 4 21 13 16
10 -6 10 -4 0 7 -17 18 -17 63 0 53 9 -6 9 -4 1 7 -6 8 -12 52 -13 99 -1 53
-6 87 -14 92 -9 6 -8 8 2 8 11 0 11 3 0 17 -12 14 -12 16 0 8 10 -5 12 -4 7 4
-7 11 -16 51 -19 84 -1 9 -4 17 -8 17 -4 0 -10 31 -14 70 -5 49 -11 68 -19 63
-6 -4 -4 2 4 12 9 11 10 16 3 11 -9 -5 -13 0 -13 13 0 12 -4 21 -10 21 -5 0
-10 12 -10 26 0 16 -4 23 -12 18 -6 -4 -8 -3 -5 3 3 5 -1 22 -9 37 -7 16 -14
35 -14 43 0 8 -4 11 -10 8 -6 -3 -10 3 -10 14 0 12 -4 21 -9 21 -5 0 -11 14
-15 31 -3 18 -16 40 -28 50 -12 11 -16 19 -8 19 7 0 -5 16 -26 35 -21 19 -34
35 -30 35 4 0 0 7 -8 16 -9 8 -16 22 -16 30 0 8 -4 12 -10 9 -5 -3 -10 3 -10
15 0 12 -4 18 -10 15 -5 -3 -10 1 -10 9 0 8 -9 18 -20 21 -11 3 -20 13 -20 21
0 8 -4 12 -10 9 -5 -3 -10 1 -10 10 0 8 -7 18 -15 21 -8 4 -15 13 -15 22 0 8
-3 13 -6 9 -9 -9 -66 41 -94 82 -8 11 -20 21 -28 21 -7 0 -10 5 -7 10 4 6 3
10 -2 9 -20 -3 -33 3 -62 30 -16 15 -27 32 -23 36 4 5 2 5 -5 2 -6 -4 -17 -2
-25 5 -7 7 -19 14 -27 16 -7 1 -20 9 -28 17 -8 8 -20 15 -27 15 -6 0 -18 9
-26 20 -10 14 -16 16 -22 7 -6 -9 -8 -9 -8 1 0 6 -7 12 -16 12 -8 0 -12 5 -9
10 3 6 -1 10 -9 10 -9 0 -16 4 -16 9 0 5 -10 12 -22 16 -13 4 -29 9 -35 11 -7
2 -19 5 -25 7 -7 2 -27 11 -44 20 -17 9 -34 13 -38 10 -3 -4 -6 -1 -6 5 0 7
-9 12 -20 12 -11 0 -20 5 -20 10 0 6 -6 10 -12 9 -31 -4 -49 2 -42 13 4 6 3 8
-3 5 -5 -3 -22 0 -37 8 -18 10 -25 10 -20 2 5 -9 3 -9 -7 1 -7 6 -31 12 -54
13 -31 0 -36 2 -20 9 16 7 10 9 -25 10 -25 1 -61 4 -80 5 -19 2 -54 5 -77 6
-23 1 -40 6 -36 12 3 5 -4 4 -15 -2 -25 -14 -43 -14 -22 -1 10 6 -774 10
-2220 10 -1775 0 -2239 -3 -2249 -12 -8 -7 -11 -8 -8 -2 3 6 0 11 -8 11 -8 0
-12 -4 -10 -7z m4378 -1494 c10 -8 17 -27 17 -47 0 -25 3 -30 10 -19 7 12 9
10 7 -7 0 -12 -5 -19 -11 -16 -6 4 -6 -1 -2 -13 4 -10 10 -26 13 -34 4 -13 4
-13 -6 0 -9 13 -11 13 -11 -1 0 -8 6 -21 13 -28 10 -11 10 -13 0 -7 -7 4 -13
2 -13 -3 0 -6 6 -11 13 -11 8 0 8 -3 -2 -9 -12 -8 -13 -14 -3 -36 14 -31 16
-46 2 -25 -6 10 -9 4 -8 -20 1 -19 6 -38 12 -42 8 -5 7 -8 -1 -8 -8 0 -13 -13
-13 -33 0 -18 6 -39 13 -46 10 -11 10 -13 0 -7 -7 4 -13 2 -13 -3 0 -6 6 -11
13 -11 8 0 8 -3 -2 -9 -12 -8 -13 -14 -3 -36 14 -31 16 -46 2 -25 -6 10 -9 4
-8 -20 1 -19 6 -38 12 -42 8 -5 7 -8 -1 -8 -8 0 -13 -13 -13 -33 0 -18 6 -39
13 -46 10 -11 10 -13 0 -7 -7 4 -13 2 -13 -3 0 -6 6 -11 13 -11 8 0 8 -3 -2
-9 -12 -8 -13 -14 -3 -36 14 -31 16 -46 2 -25 -6 10 -9 4 -8 -20 1 -19 6 -38
12 -42 8 -5 7 -8 -1 -8 -8 0 -13 -13 -13 -33 0 -18 6 -39 13 -46 10 -11 10
-13 0 -7 -7 4 -13 2 -13 -3 0 -6 6 -11 13 -11 8 0 8 -3 -2 -9 -12 -8 -13 -14
-3 -36 14 -31 16 -46 2 -25 -6 10 -9 4 -8 -20 1 -19 6 -38 12 -42 8 -5 7 -8
-1 -8 -8 0 -13 -13 -13 -33 0 -18 6 -39 13 -46 9 -11 9 -13 0 -7 -7 4 -13 2
-13 -3 0 -6 6 -11 13 -11 8 0 8 -3 -2 -9 -12 -8 -13 -14 -3 -36 14 -31 16 -46
2 -25 -6 10 -9 4 -8 -20 1 -19 6 -38 12 -42 8 -5 7 -8 -1 -8 -8 0 -13 -13 -13
-33 0 -18 6 -39 13 -46 10 -11 10 -13 0 -7 -7 4 -13 2 -13 -3 0 -6 6 -11 13
-11 8 0 8 -3 -2 -9 -12 -8 -13 -14 -3 -36 14 -31 16 -46 2 -25 -6 10 -9 4 -8
-20 1 -19 6 -38 12 -42 8 -5 7 -8 -1 -8 -8 0 -13 -13 -13 -33 0 -18 6 -39 13
-46 10 -11 10 -13 0 -7 -7 4 -13 2 -13 -3 0 -6 6 -11 13 -11 8 0 8 -3 -2 -9
-12 -8 -13 -14 -3 -36 14 -31 16 -46 2 -25 -6 10 -9 4 -8 -20 1 -19 6 -38 12
-42 8 -5 7 -8 -1 -8 -8 0 -13 -13 -13 -33 0 -18 6 -39 13 -46 10 -11 10 -13 0
-7 -7 4 -13 2 -13 -3 0 -6 6 -11 13 -11 8 0 8 -3 -2 -9 -12 -8 -13 -14 -3 -36
14 -31 16 -46 2 -25 -6 10 -9 4 -8 -20 1 -19 6 -38 12 -42 8 -5 7 -8 -1 -8 -8
0 -13 -13 -13 -33 0 -18 6 -39 13 -46 10 -11 10 -13 0 -7 -7 4 -13 2 -13 -3 0
-6 6 -11 13 -11 8 0 8 -3 -2 -9 -12 -8 -13 -14 -3 -36 14 -31 16 -46 2 -25 -6
10 -9 4 -8 -20 1 -19 6 -38 12 -42 8 -5 7 -8 -1 -8 -8 0 -13 -13 -13 -33 0
-18 6 -39 13 -46 10 -11 10 -13 0 -7 -7 4 -13 2 -13 -3 0 -6 6 -11 13 -11 8 0
8 -3 -2 -9 -12 -8 -13 -14 -3 -36 14 -31 16 -46 2 -25 -6 10 -9 4 -8 -20 1
-19 6 -38 12 -42 8 -5 7 -8 -1 -8 -8 0 -13 -13 -13 -33 0 -18 6 -39 13 -46 10
-11 10 -13 0 -7 -7 4 -13 2 -13 -3 0 -6 6 -11 13 -11 8 0 8 -3 -2 -9 -12 -8
-13 -14 -3 -36 14 -31 16 -46 2 -25 -9 13 -10 13 -10 -1 0 -8 6 -21 13 -28 10
-11 10 -13 0 -7 -7 4 -13 2 -13 -3 0 -6 6 -11 13 -12 9 0 9 -2 -1 -6 -10 -4
-10 -8 -1 -19 7 -8 9 -17 5 -21 -3 -3 -7 0 -8 8 0 8 -4 -8 -7 -36 -5 -44 -9
-50 -31 -53 -14 -2 -31 -9 -39 -15 -12 -10 -13 -9 -6 3 8 13 7 13 -8 1 -14
-11 -17 -11 -18 0 0 12 -1 12 -6 0 -5 -11 -7 -11 -14 0 -7 12 -9 11 -9 -1 0
-13 -1 -13 -10 0 -6 10 -10 11 -10 3 0 -7 -5 -13 -11 -13 -5 0 -8 4 -5 9 4 5
-2 8 -11 6 -10 -2 -18 -4 -18 -5 0 -1 -17 -3 -37 -4 -20 -1 -35 1 -32 5 5 9
-17 6 -33 -4 -8 -5 -13 -3 -13 5 0 9 -3 9 -10 -2 -9 -13 -10 -13 -10 0 0 13
-1 13 -10 0 -8 -12 -10 -12 -10 -1 0 11 -3 11 -15 1 -12 -10 -15 -10 -15 1 0
11 -2 11 -10 -1 -9 -13 -10 -13 -10 0 0 13 -1 13 -10 0 -9 -13 -10 -13 -10 0
0 13 -1 13 -10 0 -9 -13 -10 -13 -10 0 0 13 -1 13 -10 0 -9 -13 -10 -13 -10 0
0 13 -1 13 -10 0 -9 -13 -10 -13 -10 0 0 13 -2 13 -9 1 -6 -9 -15 -11 -27 -6
-27 11 -45 14 -40 6 2 -3 -40 -6 -94 -6 -54 0 -96 3 -94 6 5 9 -17 6 -33 -4
-8 -5 -13 -3 -13 5 0 9 -3 9 -10 -2 -9 -13 -10 -13 -10 0 0 13 -1 13 -10 0 -8
-12 -10 -12 -10 -1 0 11 -3 11 -17 0 -15 -12 -16 -12 -8 1 6 12 5 13 -6 3 -15
-15 -33 -18 -25 -5 3 5 -1 9 -9 9 -8 0 -12 -4 -9 -9 3 -4 0 -8 -5 -8 -6 0 -11
6 -12 13 0 8 -2 8 -6 -2 -5 -11 -7 -11 -14 0 -7 12 -9 11 -9 -1 0 -13 -1 -13
-10 0 -9 13 -10 13 -10 0 0 -13 -1 -13 -10 0 -7 11 -10 11 -10 2 0 -8 -5 -10
-12 -5 -18 10 -58 12 -52 1 3 -4 -2 -8 -11 -8 -9 0 -14 4 -11 9 6 10 -12 9
-29 0 -12 -7 -201 -3 -233 4 -13 4 -20 2 -17 -4 4 -5 1 -9 -4 -9 -6 0 -11 6
-12 13 0 10 -2 10 -6 0 -2 -7 -9 -13 -14 -13 -6 0 -8 4 -5 9 5 8 -22 8 -31 1
-7 -5 -69 -6 -78 -1 -18 10 -35 10 -29 0 3 -5 -2 -9 -11 -9 -9 0 -14 4 -11 9
5 8 -22 8 -31 1 -7 -5 -49 -6 -58 -1 -18 10 -35 10 -29 0 3 -5 0 -9 -5 -9 -6
0 -11 6 -12 13 0 10 -2 10 -6 0 -2 -7 -9 -13 -14 -13 -6 0 -8 4 -5 9 5 8 -22
8 -31 1 -7 -5 -69 -6 -78 -1 -18 10 -35 10 -29 0 3 -5 -2 -9 -11 -9 -9 0 -14
4 -11 9 5 8 -22 8 -31 1 -7 -5 -49 -6 -58 -1 -18 10 -35 10 -29 0 3 -5 0 -9
-5 -9 -6 0 -11 6 -12 13 0 10 -2 10 -6 0 -2 -7 -9 -13 -14 -13 -6 0 -8 4 -5 9
5 8 -22 8 -31 1 -7 -5 -69 -6 -78 -1 -18 10 -35 10 -29 0 3 -5 -2 -9 -11 -9
-9 0 -14 4 -11 9 5 8 -22 8 -31 1 -7 -5 -49 -6 -58 -1 -18 10 -35 10 -29 0 3
-5 0 -9 -5 -9 -6 0 -11 6 -12 13 0 10 -2 10 -6 0 -2 -7 -9 -13 -14 -13 -6 0
-8 4 -5 9 5 8 -22 8 -31 1 -7 -5 -69 -6 -78 -1 -18 10 -35 10 -29 0 3 -5 -2
-9 -11 -9 -9 0 -14 4 -11 9 4 5 -2 8 -11 6 -10 -2 -18 -4 -18 -5 0 -2 -28 -3
-62 -4 -34 -1 -60 1 -57 5 5 9 -17 6 -33 -4 -8 -5 -13 -3 -13 5 0 9 -3 9 -10
-2 -9 -13 -10 -13 -10 0 0 13 -1 13 -10 0 -8 -12 -10 -12 -10 -1 0 11 -3 11
-17 0 -15 -12 -16 -12 -8 1 6 12 5 13 -6 3 -15 -15 -33 -18 -25 -5 3 5 -1 9
-9 9 -8 0 -12 -4 -9 -9 3 -4 0 -8 -5 -8 -6 0 -11 6 -12 13 0 8 -2 8 -6 -2 -5
-11 -7 -11 -14 0 -7 12 -9 11 -9 -1 0 -13 -1 -13 -10 0 -9 13 -10 13 -10 0 0
-13 -1 -13 -10 0 -7 11 -10 11 -10 2 0 -8 -5 -10 -12 -5 -18 10 -58 12 -52 1
3 -4 -2 -8 -11 -8 -9 0 -14 4 -11 9 4 5 -2 8 -11 6 -10 -2 -18 -4 -18 -5 0 -2
-28 -3 -62 -4 -34 -1 -60 1 -57 5 5 9 -17 6 -33 -4 -8 -5 -13 -3 -13 5 0 9 -3
9 -10 -2 -9 -13 -10 -13 -10 0 0 13 -1 13 -10 0 -8 -12 -10 -12 -10 -1 0 11
-3 11 -15 1 -12 -10 -15 -10 -15 1 0 11 -2 11 -10 -1 -9 -13 -10 -13 -10 0 0
13 -1 13 -10 0 -9 -13 -10 -13 -10 0 0 13 -1 13 -10 0 -9 -13 -10 -13 -10 0 0
13 -1 13 -10 0 -9 -13 -10 -13 -10 0 0 13 -1 13 -10 0 -9 -13 -10 -13 -10 0 0
13 -2 13 -9 1 -6 -9 -15 -11 -27 -6 -27 11 -45 14 -40 6 2 -3 -40 -6 -94 -6
-54 0 -96 3 -94 6 5 9 -17 6 -33 -4 -8 -5 -13 -3 -13 5 0 9 -3 9 -10 -2 -9
-13 -10 -13 -10 0 0 13 -1 13 -10 0 -8 -12 -10 -12 -10 -1 0 11 -3 11 -17 0
-15 -12 -16 -12 -8 1 6 12 5 13 -6 3 -15 -15 -33 -18 -25 -5 3 5 -1 9 -9 9 -8
0 -12 -4 -9 -9 3 -4 0 -8 -5 -8 -6 0 -11 6 -12 13 0 8 -2 8 -6 -2 -5 -11 -7
-11 -14 0 -7 12 -9 11 -9 -1 0 -13 -1 -13 -10 0 -9 13 -10 13 -10 0 0 -13 -1
-13 -10 0 -7 11 -10 11 -10 2 0 -8 -5 -10 -12 -5 -18 10 -58 12 -52 1 3 -4 -2
-8 -11 -8 -9 0 -14 4 -11 9 4 5 -2 8 -11 6 -10 -2 -18 -4 -18 -5 0 -1 -23 -3
-52 -4 -28 -1 -50 1 -47 5 5 9 -17 6 -33 -4 -8 -5 -13 -3 -13 5 0 9 -3 9 -10
-2 -9 -13 -10 -13 -10 0 0 13 -1 13 -10 0 -9 -13 -10 -13 -10 0 0 13 -1 13
-10 0 -6 -10 -10 -11 -10 -2 0 7 -13 12 -30 12 -27 0 -35 8 -31 33 0 4 -4 7
-9 7 -16 0 -13 2767 2 2784 7 7 22 11 33 9 16 -4 17 -3 5 6 -11 8 589 11 2085
11 1730 -1 2103 -3 2118 -14z m1624 -2968 c-3 -8 -6 -5 -6 6 -1 11 2 17 5 13
3 -3 4 -12 1 -19z"/>
<path d="M8126 7668 c1 -1608 2 -2925 3 -2928 1 -3 6 2 11 10 5 8 10 10 10 4
0 -16 82 -16 92 -1 6 9 8 9 8 0 0 -9 16 -13 48 -13 26 0 54 6 61 13 8 6 11 7
8 1 -9 -15 53 -16 72 -1 9 7 12 8 8 1 -9 -15 53 -16 72 -1 9 7 12 8 8 1 -9
-15 53 -16 72 -1 10 8 12 8 8 1 -9 -16 185 -16 195 -1 6 9 8 8 8 -1 0 -17 130
-15 130 2 0 8 2 8 8 0 10 -15 84 -16 94 -1 6 9 8 9 8 -1 0 -17 130 -15 130 2
0 8 2 8 8 0 10 -16 111 -17 130 -2 9 7 13 8 9 2 -9 -15 53 -16 72 -1 9 7 12 8
8 1 -9 -15 53 -16 72 -1 9 7 12 8 8 1 -9 -15 53 -16 72 -1 11 9 13 9 8 0 -9
-15 32 -14 52 1 11 8 13 8 7 -1 -5 -10 4 -13 36 -13 24 0 38 4 33 8 -9 6 -12
27 -5 35 7 6 5 364 -1 378 -5 9 -5 20 -1 23 10 10 10 437 1 457 -5 9 -5 20 -1
23 10 10 10 118 1 137 -5 9 -5 20 -1 23 11 11 10 1059 -1 1074 -7 8 -4 12 9
12 16 0 17 2 4 10 -12 8 -11 10 7 10 12 0 24 -6 26 -12 4 -10 6 -10 6 0 1 6 7
12 15 12 8 0 17 -6 19 -12 4 -10 6 -10 6 0 1 6 11 12 24 12 13 0 29 -6 36 -12
11 -10 13 -10 7 0 -4 7 -1 12 8 12 9 0 16 -6 16 -12 0 -9 4 -8 10 2 8 12 11
13 19 1 7 -11 9 -11 14 0 5 12 7 12 15 0 8 -11 10 -11 15 0 4 12 7 11 16 -1 7
-10 11 -11 11 -2 0 6 9 12 20 12 11 0 20 -6 20 -12 0 -9 4 -8 10 2 9 13 11 13
20 0 6 -10 10 -11 10 -2 0 7 13 12 29 12 16 0 32 -6 34 -12 4 -10 6 -10 6 0 1
6 6 12 12 12 5 0 7 -5 4 -11 -4 -6 2 -5 14 3 17 11 25 11 42 0 12 -8 18 -9 14
-3 -4 7 3 11 19 11 13 0 27 -6 29 -12 4 -10 6 -10 6 0 1 6 11 12 24 12 13 0
29 -6 36 -12 11 -10 13 -10 7 0 -4 7 -1 12 8 12 9 0 16 -6 16 -12 0 -9 4 -8
10 2 8 12 11 13 19 1 7 -11 9 -11 14 0 5 12 7 12 15 0 8 -11 10 -11 15 0 4 12
7 11 16 -1 7 -10 11 -11 11 -2 0 6 9 12 20 12 11 0 20 -6 20 -12 0 -9 4 -8 10
2 9 13 11 13 20 0 6 -10 10 -11 10 -2 0 7 13 12 29 12 16 0 32 -6 34 -12 4
-10 6 -10 6 0 1 6 6 12 12 12 5 0 7 -5 4 -11 -4 -6 2 -5 14 3 17 11 25 11 42
0 12 -8 18 -9 14 -3 -4 7 3 11 19 11 13 0 27 -6 29 -12 4 -10 6 -10 6 0 1 6
11 12 24 12 13 0 29 -6 36 -12 11 -10 13 -10 7 0 -4 7 -1 12 8 12 9 0 16 -6
16 -12 0 -9 4 -8 10 2 9 13 11 13 20 0 6 -10 10 -11 10 -2 0 6 8 12 18 12 10
0 24 -6 31 -12 11 -10 13 -10 7 0 -5 8 0 12 14 12 12 0 18 -4 15 -10 -3 -5 -1
-10 4 -10 6 0 11 5 11 10 0 6 14 10 31 10 19 0 28 -4 24 -11 -4 -6 2 -5 13 2
17 11 24 10 38 -2 11 -9 15 -9 10 -1 -5 8 1 12 18 12 14 0 26 -6 26 -12 0 -10
2 -10 8 -1 10 15 82 14 101 -1 11 -8 13 -8 7 2 -5 8 0 12 14 12 12 0 18 -4 15
-10 -3 -5 -1 -10 4 -10 6 0 11 5 11 10 0 6 14 10 31 10 19 0 28 -4 24 -11 -4
-6 2 -5 13 2 17 11 24 10 38 -2 11 -9 15 -9 10 -1 -5 8 1 12 18 12 14 0 26 -6
26 -12 0 -10 2 -10 8 0 10 15 72 13 72 -3 0 -5 5 -3 10 5 9 13 11 13 20 0 6
-10 10 -11 10 -2 0 6 9 12 20 12 11 0 20 -6 20 -12 0 -9 4 -8 10 2 9 13 11 13
20 0 6 -10 10 -11 10 -2 0 7 13 12 29 12 16 0 32 -6 34 -12 4 -10 6 -10 6 0 1
6 6 12 12 12 5 0 7 -5 4 -11 -4 -6 2 -5 14 3 17 11 25 11 42 0 12 -8 18 -9 14
-3 -4 7 3 11 19 11 13 0 27 -6 29 -12 4 -10 6 -10 6 0 1 16 43 16 60 0 11 -10
13 -10 7 0 -4 7 -1 12 8 12 9 0 16 -6 16 -12 0 -9 4 -8 10 2 8 12 11 13 19 1
7 -11 9 -11 14 0 5 12 7 12 15 0 8 -11 10 -11 15 0 4 12 7 11 16 -1 7 -10 11
-11 11 -2 0 6 9 12 20 12 11 0 20 -6 20 -12 0 -9 4 -8 10 2 9 13 11 13 20 0 6
-10 10 -11 10 -2 0 6 9 12 20 12 11 0 20 -6 20 -12 0 -9 4 -8 10 2 9 13 11 13
20 0 6 -10 10 -11 10 -2 0 16 32 16 49 0 11 -10 13 -10 7 0 -9 16 6 16 23 0
11 -10 13 -10 7 0 -9 16 6 16 23 0 11 -10 13 -10 7 0 -4 7 -1 12 8 12 9 0 16
-6 16 -12 0 -9 4 -8 10 2 9 13 11 13 20 0 6 -10 10 -11 10 -2 0 16 32 16 49 0
11 -10 13 -10 7 0 -5 8 0 12 14 12 14 0 19 -4 14 -12 -6 -10 -4 -10 7 0 7 6
31 12 54 12 23 0 47 -6 54 -12 11 -10 13 -10 7 0 -4 7 -1 12 8 12 9 0 16 -6
16 -12 0 -9 3 -9 9 1 8 13 12 13 27 0 10 -8 15 -9 11 -3 -9 15 53 16 72 1 9
-7 12 -8 8 -1 -4 7 8 11 34 12 26 1 38 -2 34 -9 -4 -6 3 -5 14 3 18 11 23 11
31 -2 6 -10 10 -11 10 -2 0 16 52 16 69 0 11 -10 13 -10 7 0 -4 6 -2 12 3 12
6 0 11 -6 11 -12 0 -9 3 -10 8 -2 10 15 152 16 171 1 12 -9 13 -9 7 1 -4 7 -1
12 8 12 9 0 16 -6 16 -12 0 -9 4 -8 10 2 6 10 10 11 10 3 0 -7 10 -13 23 -13
18 0 19 -2 7 -10 -10 -6 -11 -10 -2 -10 9 0 12 -222 12 -1075 l0 -1075 28 0
c15 0 34 6 41 12 11 11 12 10 7 0 -6 -10 5 -13 53 -11 36 1 61 7 61 13 0 8 2
8 8 0 10 -15 84 -16 94 -1 6 9 8 9 8 -1 0 -17 130 -15 130 2 0 8 2 8 8 0 10
-16 111 -17 130 -2 9 7 13 8 9 2 -9 -15 53 -16 72 -1 9 7 12 8 8 1 -9 -15 53
-16 72 -1 9 7 12 8 8 1 -9 -15 53 -16 72 -1 11 9 13 9 8 0 -9 -15 32 -14 52 1
11 8 13 8 7 -2 -6 -10 5 -13 53 -11 36 1 61 7 61 13 0 8 2 8 8 0 10 -15 84
-16 94 -1 6 9 8 9 8 -1 0 -17 210 -16 210 2 0 8 2 8 8 0 10 -16 92 -17 92 -1
0 9 2 9 8 -1 6 -8 29 -12 73 -10 l64 3 3 1128 c1 754 -1 1126 -8 1122 -5 -3
-10 -2 -10 4 0 5 6 12 13 15 10 5 10 7 0 12 -7 3 -13 10 -13 15 0 6 6 7 13 3
9 -6 9 -5 0 7 -6 8 -14 47 -17 88 -4 41 -12 81 -19 90 -9 11 -9 13 0 8 8 -5 8
1 -2 19 -8 15 -12 31 -9 36 3 4 0 8 -5 8 -6 0 -11 12 -11 26 0 14 -4 23 -10
19 -6 -4 -10 7 -10 25 0 17 -9 40 -19 52 -11 11 -23 38 -26 59 -4 22 -11 37
-16 33 -8 -5 -14 17 -10 39 1 5 -3 6 -9 2 -5 -3 -10 1 -10 9 0 9 -4 16 -10 16
-5 0 -10 5 -10 11 0 7 -10 20 -22 30 -11 11 -16 19 -9 19 8 0 7 5 -3 16 -20
19 -20 33 -1 40 8 4 15 13 15 21 0 9 8 23 18 32 10 9 25 30 32 48 8 17 18 29
22 27 4 -3 8 1 9 8 0 7 3 22 5 33 3 11 6 25 6 32 1 7 5 10 10 7 4 -3 8 4 8 15
0 12 5 21 12 21 6 0 8 3 5 7 -4 3 0 17 8 30 9 13 13 28 10 33 -3 5 -1 11 5 15
6 4 8 11 5 16 -4 5 -1 9 4 9 6 0 11 16 11 36 0 19 3 33 8 31 4 -3 8 11 10 31
1 21 4 46 6 57 3 11 5 55 5 98 1 43 5 76 9 73 4 -2 8 11 8 29 0 18 -3 32 -6
30 -3 -2 -7 6 -7 18 -2 17 0 18 7 7 5 -9 9 131 9 358 0 264 -3 371 -10 366 -7
-4 -7 2 1 16 8 15 8 20 1 16 -7 -5 -11 9 -12 41 -1 82 -10 148 -20 158 -5 5
-9 18 -9 30 0 12 -6 27 -12 34 -9 9 -9 12 -1 7 6 -3 0 15 -13 41 -13 27 -22
54 -19 61 3 7 0 10 -5 7 -6 -4 -10 6 -10 22 0 19 -3 24 -9 14 -6 -9 -11 2 -15
33 -4 26 -11 44 -17 41 -8 -5 -14 16 -10 38 0 4 -3 7 -9 7 -5 0 -10 6 -10 13
0 7 -9 19 -20 27 -11 8 -20 23 -20 33 0 10 -4 16 -9 12 -6 -3 -13 11 -17 31
-5 25 -9 32 -15 22 -7 -10 -9 -9 -9 5 0 9 -4 17 -10 17 -5 0 -10 7 -10 15 0 9
-7 18 -15 21 -8 4 -12 10 -9 15 3 5 -3 9 -12 9 -10 0 -15 3 -11 6 3 3 -6 17
-20 30 -16 15 -21 24 -12 24 12 0 11 2 -1 9 -8 6 -18 7 -22 5 -7 -5 -12 10 -9
28 0 5 -2 7 -7 7 -4 -1 -14 -1 -22 0 -12 1 -13 3 -1 10 10 6 5 11 -19 16 -24
5 -29 10 -19 16 11 7 10 9 -3 9 -12 0 -18 8 -19 23 0 12 -3 16 -6 9 -3 -8 -14
-3 -32 16 -14 16 -37 32 -49 36 -12 4 -20 12 -17 17 4 5 1 9 -5 9 -6 0 -8 5
-4 12 4 6 3 8 -4 4 -6 -3 -17 1 -25 9 -9 8 -24 15 -34 15 -15 0 -16 2 -3 10
12 8 11 10 -6 10 -12 0 -24 7 -28 15 -3 8 -15 15 -26 15 -12 0 -18 5 -15 10 3
6 -3 10 -14 10 -12 0 -21 5 -21 10 0 6 -7 10 -15 10 -8 0 -15 5 -15 10 0 6 -7
10 -15 10 -8 0 -15 5 -15 10 0 6 -9 10 -20 10 -11 0 -20 5 -20 10 0 6 -7 10
-16 10 -9 0 -30 7 -47 16 -60 31 -67 34 -87 34 -11 0 -20 5 -20 10 0 6 -11 10
-24 10 -13 0 -26 5 -28 10 -2 6 -17 11 -35 13 -17 1 -29 5 -26 10 2 4 -7 7
-21 7 -13 0 -27 6 -29 13 -4 9 -6 8 -6 -2 -1 -9 -5 -10 -13 -3 -14 11 -80 21
-146 21 -24 1 -41 4 -39 9 3 4 -8 7 -23 7 -16 1 -27 -2 -24 -6 5 -9 -23 -5
-32 4 -4 4 -1169 7 -2588 7 l-2581 0 1 -2922z m5058 1421 c-4 -8 -3 -9 5 -5 6
4 18 0 27 -8 13 -13 15 -57 14 -313 -2 -339 -2 -325 -8 -318 -3 3 -10 -3 -17
-11 -11 -15 -161 -17 -1760 -16 -961 1 -1750 4 -1754 7 -9 9 -8 386 1 391 5 3
4 13 -2 23 -5 10 -6 21 -3 25 9 9 13 37 4 32 -3 -2 -6 33 -6 79 0 46 3 81 7
79 5 -3 8 0 8 5 0 6 -4 11 -8 11 -5 0 -9 7 -9 15 0 13 208 15 1754 15 1328 0
1753 -3 1747 -11z"/>
<path d="M8072 8480 c0 -14 2 -19 5 -12 2 6 2 18 0 25 -3 6 -5 1 -5 -13z"/>
<path d="M8071 8324 c0 -11 3 -14 6 -6 3 7 2 16 -1 19 -3 4 -6 -2 -5 -13z"/>
</g>
</svg>
